<?xml version="1.0" encoding="UTF-8"?>
<svg id="Layer_1" data-name="Layer 1" xmlns="http://www.w3.org/2000/svg" viewBox="0 0 1686.45 688.06">
  <defs>
    <style>
      .cls-1 {
        fill: none;
        opacity: .6;
        stroke: #ee3533;
        stroke-width: 2.25px;
      }
    </style>
  </defs>
  <path class="cls-1" d="M738.1,587.01c-10.19,0-17.29,4.16-17.81,12.05-2,30.58,23.62,48.62,21.79,63.68-.6,4.94-57.08,1.54-64.48-4.44-12.53-10.13-24.6-4.54-19.66-27.83.99-4.68,8.49-10.36.85-16.51-7.65-6.14-30.92-6.32-34.83-3.57-4.41,3.1-2.78,3.1-3.87,20.36-1.1,17.38-1.38,15.65-11.1,30.66-4.86,7.5-19.65-2.33-27.03-29.32-9.46-34.59-25-48.18-44.57-48.93-45.12-6.91-53.23,43.7-66.56,56.28-30.5,29.47-62.22,33.08-82.78,33.01-29.27-.1-54.62-19.68-58.06-44.47-5.44-39.27-46.42-47.02-66.38-53.21-14.96-4.65-42.8-7.57-57.86-3.59-7.71,2.04-11.64,10.03-14.76,17.37-3.19,7.5-1.09,35.93.08,44,1.93,13.24,17.19,17.58,5.39,23.86-25.46,13.55-55.73,10.5-83.86,6.47-10.89-1.56-6.68-9.79-20.59-15.34-15.91-6.34-56.16-.89-64.98-7.48-9.46-7.06,15.28-21.93,12.34-33.36-2.22-8.64-14.21,1.69-25.86-14.03-6.29-8.49,7.99-20.05,3.43-29.59-4.63-9.71-13.65-5.66-15.53-16.26-2.08-11.74,7.68-53.59,6.49-63.89-2.7-23.37-6.57-27.77-5.02-41.17,1.55-13.41,8.7-18.51,13.58-37.08,2.44-9.28-.36-22.93,2.11-39.28,2.46-16.36,10.78-23.79,12.28-36.68,1.5-12.89-4.62-3.23.5-30.71,5.12-27.48,23.6-90.6,27.03-135.28.44-5.77,6.33-7.96,6.99-14.98.66-7.02,5.36-14.64,6.74-24.02,1.38-9.38-.61-20.09-3.81-32.19-3.2-12.11-30.3-34.41-17.91-39.73,12.39-5.32,18.66-2.27,24.06-1.61,26.44,3.2,65.12,35.82,97.49,46.73,32.37,10.91,41.46,6.06,72.25,20.63,30.79,14.57,44.39,24.03,64.59,39.02,47.93,35.55,78.93,84.5,108.22,105.57,12.57,9.04,35.68,23.74,51.14,24.5,24.7,1.21,60.32-23.5,70.57-27.6,10.25-4.1,25.53-8.28,32.32-16.95,6.78-8.67,1.21-20.52,7.03-28.71,5.82-8.19,19.71-8.71,25.78-16.7,6.07-7.99,2.44-19.92,8.79-28.12,6.35-8.2,22.01-8.05,27.83-17.28,4.77-7.56-1.68-19,2.93-26.66,5.66-9.4,19.91-10.3,27.25-18.46,11.92-13.25,1.47-31.81,7.09-37.08,15.56-14.58,13.07-21.89,43.34-27.12,30.27-5.23,58,20.09,93.38,17.78,14.83-.97,45.11-5.09,73.52-21.89,8.25-4.88,64.3,3.18,75.34,2.68,22.08-1,23.71-10.36,42.19-10.25,18.48.11,44.42,14.6,65.33,16.7,20.91,2.1,44.82-4.84,58.59-2.93,13.77,1.91,15.79-4.56,33.43-2.09,17.65,2.47,85.9,3.52,114.41,8.46,28.51,4.94,42.98.24,55.48,1.25,12.5,1,15.36,7.4,23.73,7.03,8.37-.37,15.22-9.11,23.73-9.38,8.51-.26,15.79,8.37,24.32,7.91,8.54-.46,13.03-8.95,23.44-10.55,10.41-1.6,21.77,6.18,37.21,4.39,15.44-1.79,33.38-15.98,52.44-19.04,19.07-3.07,41.09,5.1,60.06,1.76,18.97-3.35,51.56-20.51,51.56-20.51,0,0,40.3-20.9,52.15-7.91,12.06,13.2-6.86,21.78-14.06,101.37-1.29,14.22-15.76,24.34-19.63,38.09-4,14.23.86,30.03-3.22,44.24-3.69,12.85-18.75,35.45-18.75,35.45,0,0-28.2,40.45-6.7,67.02,7.06,8.73,8.69,22.09,2.79,31.86-8.23,13.64-29.86,18.27-34.18,34.58-10.21,38.52-26.54,88.43-41,130.74-1.88,5.49-10.84,7.76-11.43,13.53-.83,8.29.08,16.85-2.05,24.9-2.67,10.1-11.63,18.09-13.18,28.42-1.39,9.26,2.55,17.57,3.81,27.83,4.16,15.4,1.44,32.58-9.95,42.57-22.37,19.61-38.12,28.52-53.09,26.37-33.08-2.65-39.96-23.73-63.89-37.18-23.93-13.45-54.1-19.28-76.36-20.95-44.52-3.34-62.91,81.17-86.3,87.58-23.39,6.41-61.29,9.9-75.41-8.58-6.12-8.02,6.26-7.28,7.32-21.91,1.08-15.04-13.19-17.02-13.44-26.4,1.14-13.72,2.64-15.52,4.49-27.35-6.64-14.79-34.03-19.08-62.77-10.82-37.44,17.24-28.25,93.02-52.09,88.7-23.83-4.32-7.84-22.89-14.54-30.9-6.7-8.02-15.15-7.66-23.52-14.6-8.38-6.93-5.05-10.77-14.85-16.62-9.8-5.86-19.18,2.11-27.03-1.13-7.84-3.23-9.82-14.46-19.99-19.35-10.16-4.9-31.98-.2-31.98-.2l-21.37,5.82-115.62.06s-25.08-11.5-35.27-11.5Z"/>
</svg>