<?xml version="1.0" encoding="UTF-8"?>
<svg id="Layer_1" data-name="Layer 1" xmlns="http://www.w3.org/2000/svg" viewBox="0 0 900.53 367.81">
  <defs>
    <style>
      .cls-1 {
        fill: none;
        fill-rule: evenodd;
        stroke: #ed1c24;
        stroke-miterlimit: 10;
      }
    </style>
  </defs>
  <path class="cls-1" d="M445.51,319.31h-31s-9.33-6.58-18-6c-8.67.58-10,7-10,7,0,0-.45,12-1,15-.55,3-8.97,26.09-28,26-19.03-.09-35.5-22.37-40-27-4.5-4.63-19.28-17.49-25-16-5.72,1.49-19.36,23.26-27,23s-14.13-24-24-24c-9.87,0-18.01,3.11-21,7-2.99,3.89-.64,22.3-4,25-3.36,2.7-24.28,3.03-27,3-2.72-.03-15,.74-17-6-2-6.74,2.09-15.14-5-22-7.09-6.86-14.81-16.19-42-16-27.19.19-22.06,29.65-18,36,4.06,6.35.94,6.23-1,7-1.94.77-7.83,4.54-22,4-14.17-.54-20.37-.38-21-1-.63-.62-8.66-8.37-11-9-2.34-.63-14.63-2.02-18-2-3.37.02-11.35.31-12,0-.65-.31-3.77-1.13-5-2-1.23-.87-.99-3.55,0-5,.99-1.45,7.1-8.26,7-10-.1-1.74.05-4.7-5-5-5.05-.3-6.78-1.46-8-3-1.22-1.54-1.99-6.85-1-9,.99-2.15,2.47-5.37,2-8s-5.86-5.46-7-7c-1.14-1.54-.75-4.91,0-8s.08-4.13-1-6c-1.08-1.87-4.23-3.86-4-7s1.6-6.93,3-9c1.4-2.07,4.51-4.38,4-8-.51-3.62-1.67-11-2-14-.33-3-.23-9.95,1-13,1.23-3.05,3.88-11.25,4-13,.12-1.75.27-12.38,1-15,.73-2.62,13-58,13-58,0,0,1.14-3.79,2-5,.86-1.21,4.63-10.82,5-12,.37-1.18,2.56-7.26,2-10-.56-2.74-1.83-6.98-2-9-.17-2.02-.79-10.6,1-13,1.79-2.4,4.04-6.68,5-8,.96-1.32,2.69-6.52,3-9,.31-2.48,2.07-11.22,2-13-.07-1.78-1.71-12.97-2-14-.29-1.03-4.46-10.26-5-12s-2.1-7.86,1-9,7.35-1.14,10,0c2.65,1.14,18.7,9.9,21,11,2.3,1.1,11.51,5.45,14,6,2.49.55,10.15,1.1,12,2,1.85.9,23.27,10.67,25,11s6.78,1.59,9,2c2.22.41,14.65,4.21,16,5,1.35.79,19.86,10.69,22,13,2.14,2.31,9.23,4.78,11,6,1.77,1.22,8.23,5.58,9,7,.77,1.42,30,35,30,35,0,0,8.29,9.91,9,12,.71,2.09,6.93,9.42,9,11,2.07,1.58,14.15,12.62,19,11,4.85-1.62,13.97-12.53,16-14,2.03-1.47,13.56-6.68,16-7,2.44-.32,18.66-7.01,20-8,1.34-.99,4.89-4.47,5-11,.11-6.53,2.65-8.37,4-9s9.22-4.36,11-7c1.78-2.64,2.65-11.91,4-14,1.35-2.09,9.62-5.61,11-6,1.38-.39,5.98-3.29,6-5,.02-1.71-2.03-10.57,0-13,2.03-2.43,8.97-5.55,13-9,4.03-3.45,4.83-4.32,5-6,.17-1.68-.58-11.99,0-14,.58-2.01,11.38-12.18,16-12,4.62.18,9.38-.38,11,0,1.62.38,9.01,1.4,11,2,1.99.6,17.57,3.91,20,4,2.43.09,13.38.18,15,0,1.62-.18,27.36-3.84,35-9,7.64-5.16,28.57-9.61,33-9,4.43.61,15.09,6.21,18,6,2.91-.21,12.5-3.89,15-4,2.5-.11,11.06,1.15,13,2s22.7,7.96,25,8c2.3.04,19.9-1.82,23-2,3.1-.18,8.63.25,10,0,1.37-.25,8.12-2.07,11-2,2.88.07,60.33,4.61,62,5s28.99.87,31,1,10.54,4.18,13,4c2.46-.18,9.75-6.04,13-6,3.25.04,8.85,4.98,12,5,3.15.02,10.51-6.03,15-6s11.32,3.01,15,3c3.68,0,26.44-10.96,31-11,4.56-.04,24.17,1.95,26,2s7.78-.08,12-2c4.22-1.92,31.77-14.7,34-15,2.23-.3,9.18-3.18,13-1s3.99,8.64,3,12c-.99,3.36-6.75,24.72-7,29-.25,4.28-1.06,14.59-2,17-.94,2.41-10.77,17.03-11,19-.23,1.97,0,19,0,19,0,0-.88,6.2-2,8-1.12,1.8-10.39,16.65-11,18-.61,1.35-4.75,10.31-5,14-.25,3.69-.62,8.63,0,11s7.12,11.91,7,14c-.12,2.09-.33,7.77-1,9s-3.26,4.64-6,7c-2.74,2.36-9.78,6.96-11,9-1.22,2.04-4.53,11.25-6,17-1.47,5.75-4.62,16.01-5,17-.37.99-12,36-12,36,0,0-.81,5.05-3,6-2.19.95-3.73,4.01-4,5-.27.99-.45,10.17-1,12-.55,1.83-4.2,9.54-5,11-.8,1.46-1.86,5.15-2,7-.14,1.85,3.77,14.76,8,19,4.23,4.24,4.96,4.79,5,7,.04,2.21-21.99,23.61-42,23-20.01-.61-34.45-20.51-43-23-8.55-2.49-24.75-7-34-7-9.25,0-12.91,2.65-21,12s-17.65,28.64-20,31-14.65,7-20,7c-5.35,0-11.93-2.46-12-9-.07-6.54.73-10.97-3-14-3.73-3.03-6.18-2.4-6-9,.18-6.6,2.35-8.3,1-13-1.35-4.7-3.55-6.33-8-8-4.45-1.67-14.38-3.59-19-3-4.62.59-14.67-.22-20,8s-9.63,21.1-10,23c-.37,1.9-3.24,12.45-5,14-1.76,1.55-3.47,3.11-5,3s-4.88-1.77-6-4c-1.12-2.23-.66-10.01-2-12s-8.76-4.43-11-6c-2.24-1.57-8.82-10.14-10-11-1.18-.86-7.84,1.79-11,1-3.16-.79-7-5.16-11-10-4-4.84-19.98-1.6-21-1-1.02.6-6.42,2.98-9,3-2.58.02-32,0-32,0Z"/>
</svg>